# xmcd
#
# Track frame offsets: 
#        150
#        17815
#        34047
#        55253
#        57035
#        94062
#        120256
#        122298
#        149309
#
# Disc length: 2645 seconds
#
# Revision: 0
# Processed by: cddbd v1.5.2PL0 Copyright (c) Steve Scherf et al.
# Submitted via: ExactAudioCopy v0.95b4
#
DISCID=6a0a5309
DTITLE=Robben Ford - Live Brescia 09071999 - CD1
DYEAR=1999
DGENRE=Blues
TTITLE0=Let Me In
TTITLE1=Just Like It Is
TTITLE2=Chevrolet
TTITLE3=Intro
TTITLE4=Nothing To Nobody
TTITLE5=Tired Of Talkin
TTITLE6=Intro
TTITLE7=If
TTITLE8=Hey Brother
EXTD=
EXTT0=
EXTT1=
EXTT2=
EXTT3=
EXTT4=
EXTT5=
EXTT6=
EXTT7=
EXTT8=
PLAYORDER=
